<?xml version="1.0" encoding="UTF-8" standalone="no"?>
<!DOCTYPE svg PUBLIC "-//W3C//DTD SVG 1.1//EN"
 "http://www.w3.org/Graphics/SVG/1.1/DTD/svg11.dtd">
<!-- Generated by graphviz version 2.43.0 (0)
 -->
<!-- Title: cluster0arquivo Pages: 1 -->
<svg width="4561pt" height="813pt"
 viewBox="0.00 0.00 4561.00 813.00" xmlns="http://www.w3.org/2000/svg" xmlns:xlink="http://www.w3.org/1999/xlink">
<g id="graph0" class="graph" transform="scale(1 1) rotate(0) translate(4 809)">
<title>cluster0arquivo</title>
<polygon fill="white" stroke="transparent" points="-4,4 -4,-809 4557,-809 4557,4 -4,4"/>
<text text-anchor="middle" x="2276.5" y="-7.8" font-family="DejaVu Sans Mono" font-size="14.00">arquivo</text>
<g id="clust1" class="cluster">
<title>cluster_54</title>
<polygon fill="purple" stroke="purple" points="194,-31 194,-83 334,-83 334,-31 194,-31"/>
</g>
<g id="clust2" class="cluster">
<title>cluster0TestClassificarIdade</title>
<polygon fill="none" stroke="black" points="538,-114 538,-639 4156,-639 4156,-114 538,-114"/>
<text text-anchor="middle" x="2347" y="-623.8" font-family="DejaVu Sans Mono" font-size="14.00">TestClassificarIdade</text>
</g>
<g id="clust3" class="cluster">
<title>cluster0test_crianca</title>
<polygon fill="none" stroke="black" points="3608,-122 3608,-608 4148,-608 4148,-122 3608,-122"/>
<text text-anchor="middle" x="3878" y="-592.8" font-family="DejaVu Sans Mono" font-size="14.00">test_crianca</text>
</g>
<g id="clust4" class="cluster">
<title>cluster_5</title>
<polygon fill="purple" stroke="purple" points="3616,-130 3616,-265 4140,-265 4140,-130 3616,-130"/>
</g>
<g id="clust5" class="cluster">
<title>cluster0test_adolescente</title>
<polygon fill="none" stroke="black" points="3060,-122 3060,-608 3600,-608 3600,-122 3060,-122"/>
<text text-anchor="middle" x="3330" y="-592.8" font-family="DejaVu Sans Mono" font-size="14.00">test_adolescente</text>
</g>
<g id="clust6" class="cluster">
<title>cluster_14</title>
<polygon fill="purple" stroke="purple" points="3068,-130 3068,-265 3592,-265 3592,-130 3068,-130"/>
</g>
<g id="clust7" class="cluster">
<title>cluster0test_adulto</title>
<polygon fill="none" stroke="black" points="2512,-122 2512,-608 3052,-608 3052,-122 2512,-122"/>
<text text-anchor="middle" x="2782" y="-592.8" font-family="DejaVu Sans Mono" font-size="14.00">test_adulto</text>
</g>
<g id="clust8" class="cluster">
<title>cluster_23</title>
<polygon fill="purple" stroke="purple" points="2520,-130 2520,-265 3044,-265 3044,-130 2520,-130"/>
</g>
<g id="clust9" class="cluster">
<title>cluster0test_idoso</title>
<polygon fill="none" stroke="black" points="1964,-122 1964,-608 2504,-608 2504,-122 1964,-122"/>
<text text-anchor="middle" x="2234" y="-592.8" font-family="DejaVu Sans Mono" font-size="14.00">test_idoso</text>
</g>
<g id="clust10" class="cluster">
<title>cluster_32</title>
<polygon fill="purple" stroke="purple" points="1972,-130 1972,-265 2496,-265 2496,-130 1972,-130"/>
</g>
<g id="clust11" class="cluster">
<title>cluster0test_idade_negativa</title>
<polygon fill="none" stroke="black" points="1591,-205 1591,-599.5 1956,-599.5 1956,-205 1591,-205"/>
<text text-anchor="middle" x="1773.5" y="-584.3" font-family="DejaVu Sans Mono" font-size="14.00">test_idade_negativa</text>
</g>
<g id="clust12" class="cluster">
<title>cluster_41</title>
<polygon fill="purple" stroke="purple" points="1599,-213 1599,-265 1948,-265 1948,-213 1599,-213"/>
</g>
<g id="clust13" class="cluster">
<title>cluster0test_idade_nao_inteira</title>
<polygon fill="none" stroke="black" points="868,-205 868,-600.5 1583,-600.5 1583,-205 868,-205"/>
<text text-anchor="middle" x="1225.5" y="-585.3" font-family="DejaVu Sans Mono" font-size="14.00">test_idade_nao_inteira</text>
</g>
<g id="clust14" class="cluster">
<title>cluster_46</title>
<polygon fill="purple" stroke="purple" points="876,-213 876,-265 1575,-265 1575,-213 876,-213"/>
</g>
<g id="clust15" class="cluster">
<title>cluster_KEY</title>
<polygon fill="none" stroke="black" points="4164,-130 4164,-599.5 4545,-599.5 4545,-130 4164,-130"/>
<text text-anchor="middle" x="4354.5" y="-584.3" font-family="DejaVu Sans Mono" font-size="14.00">KEY</text>
</g>
<!-- 1 -->
<g id="node1" class="node">
<title>1</title>
<polygon fill="#fffb81" stroke="black" points="528,-805 0,-805 0,-296 528,-296 528,-805"/>
<text text-anchor="start" x="8" y="-789.8" font-family="DejaVu Sans Mono" font-size="14.00">import unittest</text>
<text text-anchor="start" x="8" y="-774.8" font-family="DejaVu Sans Mono" font-size="14.00">from main import classificar_idade</text>
<text text-anchor="start" x="8" y="-759.8" font-family="DejaVu Sans Mono" font-size="14.00">class TestClassificarIdade(unittest.TestCase):</text>
<text text-anchor="start" x="8" y="-728.8" font-family="DejaVu Sans Mono" font-size="14.00"> &#160;&#160;&#160;def test_crianca(self):</text>
<text text-anchor="start" x="8" y="-713.8" font-family="DejaVu Sans Mono" font-size="14.00"> &#160;&#160;&#160;&#160;&#160;&#160;&#160;self.assertEqual(classificar_idade(0), &#39;Criança&#39;)</text>
<text text-anchor="start" x="8" y="-698.8" font-family="DejaVu Sans Mono" font-size="14.00"> &#160;&#160;&#160;&#160;&#160;&#160;&#160;self.assertEqual(classificar_idade(5), &#39;Criança&#39;)</text>
<text text-anchor="start" x="8" y="-683.8" font-family="DejaVu Sans Mono" font-size="14.00"> &#160;&#160;&#160;&#160;&#160;&#160;&#160;self.assertEqual(classificar_idade(12), &#39;Criança&#39;)</text>
<text text-anchor="start" x="8" y="-652.8" font-family="DejaVu Sans Mono" font-size="14.00"> &#160;&#160;&#160;def test_adolescente(self):</text>
<text text-anchor="start" x="8" y="-637.8" font-family="DejaVu Sans Mono" font-size="14.00"> &#160;&#160;&#160;&#160;&#160;&#160;&#160;self.assertEqual(classificar_idade(13), &#39;Adolescente&#39;)</text>
<text text-anchor="start" x="8" y="-622.8" font-family="DejaVu Sans Mono" font-size="14.00"> &#160;&#160;&#160;&#160;&#160;&#160;&#160;self.assertEqual(classificar_idade(15), &#39;Adolescente&#39;)</text>
<text text-anchor="start" x="8" y="-607.8" font-family="DejaVu Sans Mono" font-size="14.00"> &#160;&#160;&#160;&#160;&#160;&#160;&#160;self.assertEqual(classificar_idade(17), &#39;Adolescente&#39;)</text>
<text text-anchor="start" x="8" y="-576.8" font-family="DejaVu Sans Mono" font-size="14.00"> &#160;&#160;&#160;def test_adulto(self):</text>
<text text-anchor="start" x="8" y="-561.8" font-family="DejaVu Sans Mono" font-size="14.00"> &#160;&#160;&#160;&#160;&#160;&#160;&#160;self.assertEqual(classificar_idade(18), &#39;Adulto&#39;)</text>
<text text-anchor="start" x="8" y="-546.8" font-family="DejaVu Sans Mono" font-size="14.00"> &#160;&#160;&#160;&#160;&#160;&#160;&#160;self.assertEqual(classificar_idade(30), &#39;Adulto&#39;)</text>
<text text-anchor="start" x="8" y="-531.8" font-family="DejaVu Sans Mono" font-size="14.00"> &#160;&#160;&#160;&#160;&#160;&#160;&#160;self.assertEqual(classificar_idade(64), &#39;Adulto&#39;)</text>
<text text-anchor="start" x="8" y="-500.8" font-family="DejaVu Sans Mono" font-size="14.00"> &#160;&#160;&#160;def test_idoso(self):</text>
<text text-anchor="start" x="8" y="-485.8" font-family="DejaVu Sans Mono" font-size="14.00"> &#160;&#160;&#160;&#160;&#160;&#160;&#160;self.assertEqual(classificar_idade(65), &#39;Idoso&#39;)</text>
<text text-anchor="start" x="8" y="-470.8" font-family="DejaVu Sans Mono" font-size="14.00"> &#160;&#160;&#160;&#160;&#160;&#160;&#160;self.assertEqual(classificar_idade(80), &#39;Idoso&#39;)</text>
<text text-anchor="start" x="8" y="-455.8" font-family="DejaVu Sans Mono" font-size="14.00"> &#160;&#160;&#160;&#160;&#160;&#160;&#160;self.assertEqual(classificar_idade(100), &#39;Idoso&#39;)</text>
<text text-anchor="start" x="8" y="-424.8" font-family="DejaVu Sans Mono" font-size="14.00"> &#160;&#160;&#160;def test_idade_negativa(self):</text>
<text text-anchor="start" x="8" y="-409.8" font-family="DejaVu Sans Mono" font-size="14.00"> &#160;&#160;&#160;&#160;&#160;&#160;&#160;with self.assertRaises(ValueError):</text>
<text text-anchor="start" x="8" y="-394.8" font-family="DejaVu Sans Mono" font-size="14.00"> &#160;&#160;&#160;&#160;&#160;&#160;&#160;&#160;&#160;&#160;&#160;classificar_idade(&#45;1)</text>
<text text-anchor="start" x="8" y="-363.8" font-family="DejaVu Sans Mono" font-size="14.00"> &#160;&#160;&#160;def test_idade_nao_inteira(self):</text>
<text text-anchor="start" x="8" y="-348.8" font-family="DejaVu Sans Mono" font-size="14.00"> &#160;&#160;&#160;&#160;&#160;&#160;&#160;with self.assertRaises(TypeError):</text>
<text text-anchor="start" x="8" y="-333.8" font-family="DejaVu Sans Mono" font-size="14.00"> &#160;&#160;&#160;&#160;&#160;&#160;&#160;&#160;&#160;&#160;&#160;classificar_idade(&#39;vinte&#39;)</text>
<text text-anchor="start" x="8" y="-318.8" font-family="DejaVu Sans Mono" font-size="14.00"> &#160;&#160;&#160;&#160;&#160;&#160;&#160;with self.assertRaises(TypeError):</text>
<text text-anchor="start" x="8" y="-303.8" font-family="DejaVu Sans Mono" font-size="14.00"> &#160;&#160;&#160;&#160;&#160;&#160;&#160;&#160;&#160;&#160;&#160;classificar_idade(25.5)</text>
</g>
<!-- 53 -->
<g id="node2" class="node">
<title>53</title>
<polygon fill="#ff6752" stroke="black" points="264,-257 51.85,-239 264,-221 476.15,-239 264,-257"/>
<text text-anchor="start" x="108.66" y="-235.3" font-family="DejaVu Sans Mono" font-size="14.00">if __name__ == &#39;__main__&#39;:</text>
</g>
<!-- 1&#45;&gt;53 -->
<g id="edge3" class="edge">
<title>1&#45;&gt;53</title>
<path fill="none" stroke="black" d="M264,-295.69C264,-285.04 264,-275.47 264,-267.39"/>
<polygon fill="black" stroke="black" points="267.5,-267.34 264,-257.34 260.5,-267.34 267.5,-267.34"/>
</g>
<!-- 54 -->
<g id="node3" class="node">
<title>54</title>
<polygon fill="#fffb81" stroke="black" points="334,-174 194,-174 194,-138 334,-138 334,-174"/>
<text text-anchor="start" x="202" y="-152.3" font-family="DejaVu Sans Mono" font-size="14.00">unittest.main()</text>
</g>
<!-- 53&#45;&gt;54 -->
<g id="edge2" class="edge">
<title>53&#45;&gt;54</title>
<path fill="none" stroke="green" d="M264,-220.82C264,-210.19 264,-196.31 264,-184.2"/>
<polygon fill="green" stroke="green" points="267.5,-184.15 264,-174.15 260.5,-184.15 267.5,-184.15"/>
<text text-anchor="middle" x="355" y="-185.8" font-family="DejaVu Sans Mono" font-size="14.00">__name__ == &#39;__main__&#39;</text>
</g>
<!-- 56 -->
<g id="node4" class="node">
<title>56</title>
<polygon fill="#e552ff" stroke="#e552ff" points="326,-75 214,-75 214,-79 202,-79 202,-39 326,-39 326,-75"/>
<polyline fill="none" stroke="#e552ff" points="202,-75 214,-75 "/>
<text text-anchor="middle" x="264" y="-53.3" font-family="DejaVu Sans Mono" font-size="14.00">unittest.main</text>
</g>
<!-- 54&#45;&gt;56 -->
<g id="edge1" class="edge">
<title>54&#45;&gt;56</title>
<path fill="none" stroke="black" stroke-dasharray="5,2" d="M264,-137.66C264,-123.18 264,-102.26 264,-85.5"/>
<polygon fill="black" stroke="black" points="267.5,-85.19 264,-75.19 260.5,-85.19 267.5,-85.19"/>
<text text-anchor="middle" x="285" y="-94.8" font-family="DejaVu Sans Mono" font-size="14.00">calls</text>
</g>
<!-- 3 -->
<g id="node5" class="node">
<title>3</title>
<polygon fill="#fffb81" stroke="black" points="860,-599.5 546,-599.5 546,-501.5 860,-501.5 860,-599.5"/>
<text text-anchor="start" x="554" y="-584.3" font-family="DejaVu Sans Mono" font-size="14.00">def test_crianca(self):...</text>
<text text-anchor="start" x="554" y="-569.3" font-family="DejaVu Sans Mono" font-size="14.00">def test_adolescente(self):...</text>
<text text-anchor="start" x="554" y="-554.3" font-family="DejaVu Sans Mono" font-size="14.00">def test_adulto(self):...</text>
<text text-anchor="start" x="554" y="-539.3" font-family="DejaVu Sans Mono" font-size="14.00">def test_idoso(self):...</text>
<text text-anchor="start" x="554" y="-524.3" font-family="DejaVu Sans Mono" font-size="14.00">def test_idade_negativa(self):...</text>
<text text-anchor="start" x="554" y="-509.3" font-family="DejaVu Sans Mono" font-size="14.00">def test_idade_nao_inteira(self):...</text>
</g>
<!-- 5 -->
<g id="node6" class="node">
<title>5</title>
<polygon fill="#fffb81" stroke="black" points="4092.5,-577 3663.5,-577 3663.5,-524 4092.5,-524 4092.5,-577"/>
<text text-anchor="start" x="3671.5" y="-561.8" font-family="DejaVu Sans Mono" font-size="14.00">self.assertEqual(classificar_idade(0), &#39;Criança&#39;)</text>
<text text-anchor="start" x="3671.5" y="-546.8" font-family="DejaVu Sans Mono" font-size="14.00">self.assertEqual(classificar_idade(5), &#39;Criança&#39;)</text>
<text text-anchor="start" x="3671.5" y="-531.8" font-family="DejaVu Sans Mono" font-size="14.00">self.assertEqual(classificar_idade(12), &#39;Criança&#39;)</text>
</g>
<!-- 6 -->
<g id="node7" class="node">
<title>6</title>
<polygon fill="#e552ff" stroke="#e552ff" points="3783.5,-257 3646.5,-257 3646.5,-261 3634.5,-261 3634.5,-221 3783.5,-221 3783.5,-257"/>
<polyline fill="none" stroke="#e552ff" points="3634.5,-257 3646.5,-257 "/>
<text text-anchor="middle" x="3709" y="-235.3" font-family="DejaVu Sans Mono" font-size="14.00">self.assertEqual</text>
</g>
<!-- 5&#45;&gt;6 -->
<g id="edge4" class="edge">
<title>5&#45;&gt;6</title>
<path fill="none" stroke="black" stroke-dasharray="5,2" d="M3864.03,-523.91C3832.34,-465.88 3755.3,-324.79 3723.3,-266.19"/>
<polygon fill="black" stroke="black" points="3726.26,-264.3 3718.39,-257.2 3720.11,-267.65 3726.26,-264.3"/>
<text text-anchor="middle" x="3754" y="-276.8" font-family="DejaVu Sans Mono" font-size="14.00">calls</text>
</g>
<!-- 8 -->
<g id="node8" class="node">
<title>8</title>
<polygon fill="#e552ff" stroke="#e552ff" points="3952.5,-257 3815.5,-257 3815.5,-261 3803.5,-261 3803.5,-221 3952.5,-221 3952.5,-257"/>
<polyline fill="none" stroke="#e552ff" points="3803.5,-257 3815.5,-257 "/>
<text text-anchor="middle" x="3878" y="-235.3" font-family="DejaVu Sans Mono" font-size="14.00">self.assertEqual</text>
</g>
<!-- 5&#45;&gt;8 -->
<g id="edge5" class="edge">
<title>5&#45;&gt;8</title>
<path fill="none" stroke="black" stroke-dasharray="5,2" d="M3878,-523.91C3878,-466.24 3878,-326.53 3878,-267.29"/>
<polygon fill="black" stroke="black" points="3881.5,-267.2 3878,-257.2 3874.5,-267.2 3881.5,-267.2"/>
<text text-anchor="middle" x="3899" y="-276.8" font-family="DejaVu Sans Mono" font-size="14.00">calls</text>
</g>
<!-- 10 -->
<g id="node9" class="node">
<title>10</title>
<polygon fill="#e552ff" stroke="#e552ff" points="4123.5,-257 3986.5,-257 3986.5,-261 3974.5,-261 3974.5,-221 4123.5,-221 4123.5,-257"/>
<polyline fill="none" stroke="#e552ff" points="3974.5,-257 3986.5,-257 "/>
<text text-anchor="middle" x="4049" y="-235.3" font-family="DejaVu Sans Mono" font-size="14.00">self.assertEqual</text>
</g>
<!-- 5&#45;&gt;10 -->
<g id="edge6" class="edge">
<title>5&#45;&gt;10</title>
<path fill="none" stroke="black" stroke-dasharray="5,2" d="M3892.14,-523.91C3924.2,-465.88 4002.15,-324.79 4034.53,-266.19"/>
<polygon fill="black" stroke="black" points="4037.72,-267.65 4039.5,-257.2 4031.6,-264.26 4037.72,-267.65"/>
<text text-anchor="middle" x="4048" y="-276.8" font-family="DejaVu Sans Mono" font-size="14.00">calls</text>
</g>
<!-- 7 -->
<g id="node10" class="node">
<title>7</title>
<polygon fill="#e552ff" stroke="#e552ff" points="3781.5,-174 3636.5,-174 3636.5,-178 3624.5,-178 3624.5,-138 3781.5,-138 3781.5,-174"/>
<polyline fill="none" stroke="#e552ff" points="3624.5,-174 3636.5,-174 "/>
<text text-anchor="middle" x="3703" y="-152.3" font-family="DejaVu Sans Mono" font-size="14.00">classificar_idade</text>
</g>
<!-- 6&#45;&gt;7 -->
<g id="edge7" class="edge">
<title>6&#45;&gt;7</title>
<path fill="none" stroke="black" d="M3707.73,-220.82C3706.94,-210.19 3705.91,-196.31 3705.02,-184.2"/>
<polygon fill="black" stroke="black" points="3708.5,-183.87 3704.27,-174.15 3701.52,-184.38 3708.5,-183.87"/>
</g>
<!-- 9 -->
<g id="node11" class="node">
<title>9</title>
<polygon fill="#e552ff" stroke="#e552ff" points="3956.5,-174 3811.5,-174 3811.5,-178 3799.5,-178 3799.5,-138 3956.5,-138 3956.5,-174"/>
<polyline fill="none" stroke="#e552ff" points="3799.5,-174 3811.5,-174 "/>
<text text-anchor="middle" x="3878" y="-152.3" font-family="DejaVu Sans Mono" font-size="14.00">classificar_idade</text>
</g>
<!-- 8&#45;&gt;9 -->
<g id="edge8" class="edge">
<title>8&#45;&gt;9</title>
<path fill="none" stroke="black" d="M3878,-220.82C3878,-210.19 3878,-196.31 3878,-184.2"/>
<polygon fill="black" stroke="black" points="3881.5,-184.15 3878,-174.15 3874.5,-184.15 3881.5,-184.15"/>
</g>
<!-- 11 -->
<g id="node12" class="node">
<title>11</title>
<polygon fill="#e552ff" stroke="#e552ff" points="4131.5,-174 3986.5,-174 3986.5,-178 3974.5,-178 3974.5,-138 4131.5,-138 4131.5,-174"/>
<polyline fill="none" stroke="#e552ff" points="3974.5,-174 3986.5,-174 "/>
<text text-anchor="middle" x="4053" y="-152.3" font-family="DejaVu Sans Mono" font-size="14.00">classificar_idade</text>
</g>
<!-- 10&#45;&gt;11 -->
<g id="edge9" class="edge">
<title>10&#45;&gt;11</title>
<path fill="none" stroke="black" d="M4049.85,-220.82C4050.37,-210.19 4051.06,-196.31 4051.66,-184.2"/>
<polygon fill="black" stroke="black" points="4055.16,-184.31 4052.15,-174.15 4048.16,-183.97 4055.16,-184.31"/>
</g>
<!-- 14 -->
<g id="node13" class="node">
<title>14</title>
<polygon fill="#fffb81" stroke="black" points="3561,-577 3099,-577 3099,-524 3561,-524 3561,-577"/>
<text text-anchor="start" x="3107" y="-561.8" font-family="DejaVu Sans Mono" font-size="14.00">self.assertEqual(classificar_idade(13), &#39;Adolescente&#39;)</text>
<text text-anchor="start" x="3107" y="-546.8" font-family="DejaVu Sans Mono" font-size="14.00">self.assertEqual(classificar_idade(15), &#39;Adolescente&#39;)</text>
<text text-anchor="start" x="3107" y="-531.8" font-family="DejaVu Sans Mono" font-size="14.00">self.assertEqual(classificar_idade(17), &#39;Adolescente&#39;)</text>
</g>
<!-- 15 -->
<g id="node14" class="node">
<title>15</title>
<polygon fill="#e552ff" stroke="#e552ff" points="3235.5,-257 3098.5,-257 3098.5,-261 3086.5,-261 3086.5,-221 3235.5,-221 3235.5,-257"/>
<polyline fill="none" stroke="#e552ff" points="3086.5,-257 3098.5,-257 "/>
<text text-anchor="middle" x="3161" y="-235.3" font-family="DejaVu Sans Mono" font-size="14.00">self.assertEqual</text>
</g>
<!-- 14&#45;&gt;15 -->
<g id="edge10" class="edge">
<title>14&#45;&gt;15</title>
<path fill="none" stroke="black" stroke-dasharray="5,2" d="M3316.03,-523.91C3284.34,-465.88 3207.3,-324.79 3175.3,-266.19"/>
<polygon fill="black" stroke="black" points="3178.26,-264.3 3170.39,-257.2 3172.11,-267.65 3178.26,-264.3"/>
<text text-anchor="middle" x="3206" y="-276.8" font-family="DejaVu Sans Mono" font-size="14.00">calls</text>
</g>
<!-- 17 -->
<g id="node15" class="node">
<title>17</title>
<polygon fill="#e552ff" stroke="#e552ff" points="3404.5,-257 3267.5,-257 3267.5,-261 3255.5,-261 3255.5,-221 3404.5,-221 3404.5,-257"/>
<polyline fill="none" stroke="#e552ff" points="3255.5,-257 3267.5,-257 "/>
<text text-anchor="middle" x="3330" y="-235.3" font-family="DejaVu Sans Mono" font-size="14.00">self.assertEqual</text>
</g>
<!-- 14&#45;&gt;17 -->
<g id="edge11" class="edge">
<title>14&#45;&gt;17</title>
<path fill="none" stroke="black" stroke-dasharray="5,2" d="M3330,-523.91C3330,-466.24 3330,-326.53 3330,-267.29"/>
<polygon fill="black" stroke="black" points="3333.5,-267.2 3330,-257.2 3326.5,-267.2 3333.5,-267.2"/>
<text text-anchor="middle" x="3351" y="-276.8" font-family="DejaVu Sans Mono" font-size="14.00">calls</text>
</g>
<!-- 19 -->
<g id="node16" class="node">
<title>19</title>
<polygon fill="#e552ff" stroke="#e552ff" points="3575.5,-257 3438.5,-257 3438.5,-261 3426.5,-261 3426.5,-221 3575.5,-221 3575.5,-257"/>
<polyline fill="none" stroke="#e552ff" points="3426.5,-257 3438.5,-257 "/>
<text text-anchor="middle" x="3501" y="-235.3" font-family="DejaVu Sans Mono" font-size="14.00">self.assertEqual</text>
</g>
<!-- 14&#45;&gt;19 -->
<g id="edge12" class="edge">
<title>14&#45;&gt;19</title>
<path fill="none" stroke="black" stroke-dasharray="5,2" d="M3344.14,-523.91C3376.2,-465.88 3454.15,-324.79 3486.53,-266.19"/>
<polygon fill="black" stroke="black" points="3489.72,-267.65 3491.5,-257.2 3483.6,-264.26 3489.72,-267.65"/>
<text text-anchor="middle" x="3500" y="-276.8" font-family="DejaVu Sans Mono" font-size="14.00">calls</text>
</g>
<!-- 16 -->
<g id="node17" class="node">
<title>16</title>
<polygon fill="#e552ff" stroke="#e552ff" points="3233.5,-174 3088.5,-174 3088.5,-178 3076.5,-178 3076.5,-138 3233.5,-138 3233.5,-174"/>
<polyline fill="none" stroke="#e552ff" points="3076.5,-174 3088.5,-174 "/>
<text text-anchor="middle" x="3155" y="-152.3" font-family="DejaVu Sans Mono" font-size="14.00">classificar_idade</text>
</g>
<!-- 15&#45;&gt;16 -->
<g id="edge13" class="edge">
<title>15&#45;&gt;16</title>
<path fill="none" stroke="black" d="M3159.73,-220.82C3158.94,-210.19 3157.91,-196.31 3157.02,-184.2"/>
<polygon fill="black" stroke="black" points="3160.5,-183.87 3156.27,-174.15 3153.52,-184.38 3160.5,-183.87"/>
</g>
<!-- 18 -->
<g id="node18" class="node">
<title>18</title>
<polygon fill="#e552ff" stroke="#e552ff" points="3408.5,-174 3263.5,-174 3263.5,-178 3251.5,-178 3251.5,-138 3408.5,-138 3408.5,-174"/>
<polyline fill="none" stroke="#e552ff" points="3251.5,-174 3263.5,-174 "/>
<text text-anchor="middle" x="3330" y="-152.3" font-family="DejaVu Sans Mono" font-size="14.00">classificar_idade</text>
</g>
<!-- 17&#45;&gt;18 -->
<g id="edge14" class="edge">
<title>17&#45;&gt;18</title>
<path fill="none" stroke="black" d="M3330,-220.82C3330,-210.19 3330,-196.31 3330,-184.2"/>
<polygon fill="black" stroke="black" points="3333.5,-184.15 3330,-174.15 3326.5,-184.15 3333.5,-184.15"/>
</g>
<!-- 20 -->
<g id="node19" class="node">
<title>20</title>
<polygon fill="#e552ff" stroke="#e552ff" points="3583.5,-174 3438.5,-174 3438.5,-178 3426.5,-178 3426.5,-138 3583.5,-138 3583.5,-174"/>
<polyline fill="none" stroke="#e552ff" points="3426.5,-174 3438.5,-174 "/>
<text text-anchor="middle" x="3505" y="-152.3" font-family="DejaVu Sans Mono" font-size="14.00">classificar_idade</text>
</g>
<!-- 19&#45;&gt;20 -->
<g id="edge15" class="edge">
<title>19&#45;&gt;20</title>
<path fill="none" stroke="black" d="M3501.85,-220.82C3502.37,-210.19 3503.06,-196.31 3503.66,-184.2"/>
<polygon fill="black" stroke="black" points="3507.16,-184.31 3504.15,-174.15 3500.16,-183.97 3507.16,-184.31"/>
</g>
<!-- 23 -->
<g id="node20" class="node">
<title>23</title>
<polygon fill="#fffb81" stroke="black" points="2992.5,-577 2571.5,-577 2571.5,-524 2992.5,-524 2992.5,-577"/>
<text text-anchor="start" x="2579.5" y="-561.8" font-family="DejaVu Sans Mono" font-size="14.00">self.assertEqual(classificar_idade(18), &#39;Adulto&#39;)</text>
<text text-anchor="start" x="2579.5" y="-546.8" font-family="DejaVu Sans Mono" font-size="14.00">self.assertEqual(classificar_idade(30), &#39;Adulto&#39;)</text>
<text text-anchor="start" x="2579.5" y="-531.8" font-family="DejaVu Sans Mono" font-size="14.00">self.assertEqual(classificar_idade(64), &#39;Adulto&#39;)</text>
</g>
<!-- 24 -->
<g id="node21" class="node">
<title>24</title>
<polygon fill="#e552ff" stroke="#e552ff" points="2687.5,-257 2550.5,-257 2550.5,-261 2538.5,-261 2538.5,-221 2687.5,-221 2687.5,-257"/>
<polyline fill="none" stroke="#e552ff" points="2538.5,-257 2550.5,-257 "/>
<text text-anchor="middle" x="2613" y="-235.3" font-family="DejaVu Sans Mono" font-size="14.00">self.assertEqual</text>
</g>
<!-- 23&#45;&gt;24 -->
<g id="edge16" class="edge">
<title>23&#45;&gt;24</title>
<path fill="none" stroke="black" stroke-dasharray="5,2" d="M2768.03,-523.91C2736.34,-465.88 2659.3,-324.79 2627.3,-266.19"/>
<polygon fill="black" stroke="black" points="2630.26,-264.3 2622.39,-257.2 2624.11,-267.65 2630.26,-264.3"/>
<text text-anchor="middle" x="2658" y="-276.8" font-family="DejaVu Sans Mono" font-size="14.00">calls</text>
</g>
<!-- 26 -->
<g id="node22" class="node">
<title>26</title>
<polygon fill="#e552ff" stroke="#e552ff" points="2856.5,-257 2719.5,-257 2719.5,-261 2707.5,-261 2707.5,-221 2856.5,-221 2856.5,-257"/>
<polyline fill="none" stroke="#e552ff" points="2707.5,-257 2719.5,-257 "/>
<text text-anchor="middle" x="2782" y="-235.3" font-family="DejaVu Sans Mono" font-size="14.00">self.assertEqual</text>
</g>
<!-- 23&#45;&gt;26 -->
<g id="edge17" class="edge">
<title>23&#45;&gt;26</title>
<path fill="none" stroke="black" stroke-dasharray="5,2" d="M2782,-523.91C2782,-466.24 2782,-326.53 2782,-267.29"/>
<polygon fill="black" stroke="black" points="2785.5,-267.2 2782,-257.2 2778.5,-267.2 2785.5,-267.2"/>
<text text-anchor="middle" x="2803" y="-276.8" font-family="DejaVu Sans Mono" font-size="14.00">calls</text>
</g>
<!-- 28 -->
<g id="node23" class="node">
<title>28</title>
<polygon fill="#e552ff" stroke="#e552ff" points="3027.5,-257 2890.5,-257 2890.5,-261 2878.5,-261 2878.5,-221 3027.5,-221 3027.5,-257"/>
<polyline fill="none" stroke="#e552ff" points="2878.5,-257 2890.5,-257 "/>
<text text-anchor="middle" x="2953" y="-235.3" font-family="DejaVu Sans Mono" font-size="14.00">self.assertEqual</text>
</g>
<!-- 23&#45;&gt;28 -->
<g id="edge18" class="edge">
<title>23&#45;&gt;28</title>
<path fill="none" stroke="black" stroke-dasharray="5,2" d="M2796.14,-523.91C2828.2,-465.88 2906.15,-324.79 2938.53,-266.19"/>
<polygon fill="black" stroke="black" points="2941.72,-267.65 2943.5,-257.2 2935.6,-264.26 2941.72,-267.65"/>
<text text-anchor="middle" x="2952" y="-276.8" font-family="DejaVu Sans Mono" font-size="14.00">calls</text>
</g>
<!-- 25 -->
<g id="node24" class="node">
<title>25</title>
<polygon fill="#e552ff" stroke="#e552ff" points="2685.5,-174 2540.5,-174 2540.5,-178 2528.5,-178 2528.5,-138 2685.5,-138 2685.5,-174"/>
<polyline fill="none" stroke="#e552ff" points="2528.5,-174 2540.5,-174 "/>
<text text-anchor="middle" x="2607" y="-152.3" font-family="DejaVu Sans Mono" font-size="14.00">classificar_idade</text>
</g>
<!-- 24&#45;&gt;25 -->
<g id="edge19" class="edge">
<title>24&#45;&gt;25</title>
<path fill="none" stroke="black" d="M2611.73,-220.82C2610.94,-210.19 2609.91,-196.31 2609.02,-184.2"/>
<polygon fill="black" stroke="black" points="2612.5,-183.87 2608.27,-174.15 2605.52,-184.38 2612.5,-183.87"/>
</g>
<!-- 27 -->
<g id="node25" class="node">
<title>27</title>
<polygon fill="#e552ff" stroke="#e552ff" points="2860.5,-174 2715.5,-174 2715.5,-178 2703.5,-178 2703.5,-138 2860.5,-138 2860.5,-174"/>
<polyline fill="none" stroke="#e552ff" points="2703.5,-174 2715.5,-174 "/>
<text text-anchor="middle" x="2782" y="-152.3" font-family="DejaVu Sans Mono" font-size="14.00">classificar_idade</text>
</g>
<!-- 26&#45;&gt;27 -->
<g id="edge20" class="edge">
<title>26&#45;&gt;27</title>
<path fill="none" stroke="black" d="M2782,-220.82C2782,-210.19 2782,-196.31 2782,-184.2"/>
<polygon fill="black" stroke="black" points="2785.5,-184.15 2782,-174.15 2778.5,-184.15 2785.5,-184.15"/>
</g>
<!-- 29 -->
<g id="node26" class="node">
<title>29</title>
<polygon fill="#e552ff" stroke="#e552ff" points="3035.5,-174 2890.5,-174 2890.5,-178 2878.5,-178 2878.5,-138 3035.5,-138 3035.5,-174"/>
<polyline fill="none" stroke="#e552ff" points="2878.5,-174 2890.5,-174 "/>
<text text-anchor="middle" x="2957" y="-152.3" font-family="DejaVu Sans Mono" font-size="14.00">classificar_idade</text>
</g>
<!-- 28&#45;&gt;29 -->
<g id="edge21" class="edge">
<title>28&#45;&gt;29</title>
<path fill="none" stroke="black" d="M2953.85,-220.82C2954.37,-210.19 2955.06,-196.31 2955.66,-184.2"/>
<polygon fill="black" stroke="black" points="2959.16,-184.31 2956.15,-174.15 2952.16,-183.97 2959.16,-184.31"/>
</g>
<!-- 32 -->
<g id="node27" class="node">
<title>32</title>
<polygon fill="#fffb81" stroke="black" points="2444.5,-577 2023.5,-577 2023.5,-524 2444.5,-524 2444.5,-577"/>
<text text-anchor="start" x="2031.5" y="-561.8" font-family="DejaVu Sans Mono" font-size="14.00">self.assertEqual(classificar_idade(65), &#39;Idoso&#39;)</text>
<text text-anchor="start" x="2031.5" y="-546.8" font-family="DejaVu Sans Mono" font-size="14.00">self.assertEqual(classificar_idade(80), &#39;Idoso&#39;)</text>
<text text-anchor="start" x="2031.5" y="-531.8" font-family="DejaVu Sans Mono" font-size="14.00">self.assertEqual(classificar_idade(100), &#39;Idoso&#39;)</text>
</g>
<!-- 33 -->
<g id="node28" class="node">
<title>33</title>
<polygon fill="#e552ff" stroke="#e552ff" points="2139.5,-257 2002.5,-257 2002.5,-261 1990.5,-261 1990.5,-221 2139.5,-221 2139.5,-257"/>
<polyline fill="none" stroke="#e552ff" points="1990.5,-257 2002.5,-257 "/>
<text text-anchor="middle" x="2065" y="-235.3" font-family="DejaVu Sans Mono" font-size="14.00">self.assertEqual</text>
</g>
<!-- 32&#45;&gt;33 -->
<g id="edge22" class="edge">
<title>32&#45;&gt;33</title>
<path fill="none" stroke="black" stroke-dasharray="5,2" d="M2220.03,-523.91C2188.34,-465.88 2111.3,-324.79 2079.3,-266.19"/>
<polygon fill="black" stroke="black" points="2082.26,-264.3 2074.39,-257.2 2076.11,-267.65 2082.26,-264.3"/>
<text text-anchor="middle" x="2110" y="-276.8" font-family="DejaVu Sans Mono" font-size="14.00">calls</text>
</g>
<!-- 35 -->
<g id="node29" class="node">
<title>35</title>
<polygon fill="#e552ff" stroke="#e552ff" points="2308.5,-257 2171.5,-257 2171.5,-261 2159.5,-261 2159.5,-221 2308.5,-221 2308.5,-257"/>
<polyline fill="none" stroke="#e552ff" points="2159.5,-257 2171.5,-257 "/>
<text text-anchor="middle" x="2234" y="-235.3" font-family="DejaVu Sans Mono" font-size="14.00">self.assertEqual</text>
</g>
<!-- 32&#45;&gt;35 -->
<g id="edge23" class="edge">
<title>32&#45;&gt;35</title>
<path fill="none" stroke="black" stroke-dasharray="5,2" d="M2234,-523.91C2234,-466.24 2234,-326.53 2234,-267.29"/>
<polygon fill="black" stroke="black" points="2237.5,-267.2 2234,-257.2 2230.5,-267.2 2237.5,-267.2"/>
<text text-anchor="middle" x="2255" y="-276.8" font-family="DejaVu Sans Mono" font-size="14.00">calls</text>
</g>
<!-- 37 -->
<g id="node30" class="node">
<title>37</title>
<polygon fill="#e552ff" stroke="#e552ff" points="2479.5,-257 2342.5,-257 2342.5,-261 2330.5,-261 2330.5,-221 2479.5,-221 2479.5,-257"/>
<polyline fill="none" stroke="#e552ff" points="2330.5,-257 2342.5,-257 "/>
<text text-anchor="middle" x="2405" y="-235.3" font-family="DejaVu Sans Mono" font-size="14.00">self.assertEqual</text>
</g>
<!-- 32&#45;&gt;37 -->
<g id="edge24" class="edge">
<title>32&#45;&gt;37</title>
<path fill="none" stroke="black" stroke-dasharray="5,2" d="M2248.14,-523.91C2280.2,-465.88 2358.15,-324.79 2390.53,-266.19"/>
<polygon fill="black" stroke="black" points="2393.72,-267.65 2395.5,-257.2 2387.6,-264.26 2393.72,-267.65"/>
<text text-anchor="middle" x="2404" y="-276.8" font-family="DejaVu Sans Mono" font-size="14.00">calls</text>
</g>
<!-- 34 -->
<g id="node31" class="node">
<title>34</title>
<polygon fill="#e552ff" stroke="#e552ff" points="2137.5,-174 1992.5,-174 1992.5,-178 1980.5,-178 1980.5,-138 2137.5,-138 2137.5,-174"/>
<polyline fill="none" stroke="#e552ff" points="1980.5,-174 1992.5,-174 "/>
<text text-anchor="middle" x="2059" y="-152.3" font-family="DejaVu Sans Mono" font-size="14.00">classificar_idade</text>
</g>
<!-- 33&#45;&gt;34 -->
<g id="edge25" class="edge">
<title>33&#45;&gt;34</title>
<path fill="none" stroke="black" d="M2063.73,-220.82C2062.94,-210.19 2061.91,-196.31 2061.02,-184.2"/>
<polygon fill="black" stroke="black" points="2064.5,-183.87 2060.27,-174.15 2057.52,-184.38 2064.5,-183.87"/>
</g>
<!-- 36 -->
<g id="node32" class="node">
<title>36</title>
<polygon fill="#e552ff" stroke="#e552ff" points="2312.5,-174 2167.5,-174 2167.5,-178 2155.5,-178 2155.5,-138 2312.5,-138 2312.5,-174"/>
<polyline fill="none" stroke="#e552ff" points="2155.5,-174 2167.5,-174 "/>
<text text-anchor="middle" x="2234" y="-152.3" font-family="DejaVu Sans Mono" font-size="14.00">classificar_idade</text>
</g>
<!-- 35&#45;&gt;36 -->
<g id="edge26" class="edge">
<title>35&#45;&gt;36</title>
<path fill="none" stroke="black" d="M2234,-220.82C2234,-210.19 2234,-196.31 2234,-184.2"/>
<polygon fill="black" stroke="black" points="2237.5,-184.15 2234,-174.15 2230.5,-184.15 2237.5,-184.15"/>
</g>
<!-- 38 -->
<g id="node33" class="node">
<title>38</title>
<polygon fill="#e552ff" stroke="#e552ff" points="2487.5,-174 2342.5,-174 2342.5,-178 2330.5,-178 2330.5,-138 2487.5,-138 2487.5,-174"/>
<polyline fill="none" stroke="#e552ff" points="2330.5,-174 2342.5,-174 "/>
<text text-anchor="middle" x="2409" y="-152.3" font-family="DejaVu Sans Mono" font-size="14.00">classificar_idade</text>
</g>
<!-- 37&#45;&gt;38 -->
<g id="edge27" class="edge">
<title>37&#45;&gt;38</title>
<path fill="none" stroke="black" d="M2405.85,-220.82C2406.37,-210.19 2407.06,-196.31 2407.66,-184.2"/>
<polygon fill="black" stroke="black" points="2411.16,-184.31 2408.15,-174.15 2404.16,-183.97 2411.16,-184.31"/>
</g>
<!-- 41 -->
<g id="node34" class="node">
<title>41</title>
<polygon fill="#fffb81" stroke="black" points="1864,-568.5 1674,-568.5 1674,-532.5 1864,-532.5 1864,-568.5"/>
<text text-anchor="start" x="1682" y="-546.8" font-family="DejaVu Sans Mono" font-size="14.00">classificar_idade(&#45;1)</text>
</g>
<!-- 42 -->
<g id="node35" class="node">
<title>42</title>
<polygon fill="#e552ff" stroke="#e552ff" points="1764.5,-257 1619.5,-257 1619.5,-261 1607.5,-261 1607.5,-221 1764.5,-221 1764.5,-257"/>
<polyline fill="none" stroke="#e552ff" points="1607.5,-257 1619.5,-257 "/>
<text text-anchor="middle" x="1686" y="-235.3" font-family="DejaVu Sans Mono" font-size="14.00">self.assertRaises</text>
</g>
<!-- 41&#45;&gt;42 -->
<g id="edge28" class="edge">
<title>41&#45;&gt;42</title>
<path fill="none" stroke="black" stroke-dasharray="5,2" d="M1764.42,-532.42C1750.7,-481.27 1709.87,-329.02 1693.21,-266.87"/>
<polygon fill="black" stroke="black" points="1696.54,-265.78 1690.57,-257.03 1689.78,-267.59 1696.54,-265.78"/>
<text text-anchor="middle" x="1719" y="-276.8" font-family="DejaVu Sans Mono" font-size="14.00">calls</text>
</g>
<!-- 43 -->
<g id="node36" class="node">
<title>43</title>
<polygon fill="#e552ff" stroke="#e552ff" points="1939.5,-257 1794.5,-257 1794.5,-261 1782.5,-261 1782.5,-221 1939.5,-221 1939.5,-257"/>
<polyline fill="none" stroke="#e552ff" points="1782.5,-257 1794.5,-257 "/>
<text text-anchor="middle" x="1861" y="-235.3" font-family="DejaVu Sans Mono" font-size="14.00">classificar_idade</text>
</g>
<!-- 41&#45;&gt;43 -->
<g id="edge29" class="edge">
<title>41&#45;&gt;43</title>
<path fill="none" stroke="black" stroke-dasharray="5,2" d="M1774.08,-532.42C1789.28,-481.27 1834.54,-329.02 1853.01,-266.87"/>
<polygon fill="black" stroke="black" points="1856.44,-267.61 1855.94,-257.03 1849.73,-265.62 1856.44,-267.61"/>
<text text-anchor="middle" x="1870" y="-276.8" font-family="DejaVu Sans Mono" font-size="14.00">calls</text>
</g>
<!-- 46 -->
<g id="node37" class="node">
<title>46</title>
<polygon fill="#fffb81" stroke="black" points="1312.5,-569.5 1081.5,-569.5 1081.5,-531.5 1312.5,-531.5 1312.5,-569.5"/>
<text text-anchor="start" x="1089.5" y="-554.3" font-family="DejaVu Sans Mono" font-size="14.00">classificar_idade(&#39;vinte&#39;)</text>
<text text-anchor="start" x="1089.5" y="-539.3" font-family="DejaVu Sans Mono" font-size="14.00">classificar_idade(25.5)</text>
</g>
<!-- 47 -->
<g id="node38" class="node">
<title>47</title>
<polygon fill="#e552ff" stroke="#e552ff" points="1041.5,-257 896.5,-257 896.5,-261 884.5,-261 884.5,-221 1041.5,-221 1041.5,-257"/>
<polyline fill="none" stroke="#e552ff" points="884.5,-257 896.5,-257 "/>
<text text-anchor="middle" x="963" y="-235.3" font-family="DejaVu Sans Mono" font-size="14.00">self.assertRaises</text>
</g>
<!-- 46&#45;&gt;47 -->
<g id="edge30" class="edge">
<title>46&#45;&gt;47</title>
<path fill="none" stroke="black" stroke-dasharray="5,2" d="M1192.96,-531.45C1182.02,-486.25 1147.8,-366.8 1078,-296 1063.4,-281.19 1044.08,-269.72 1025.46,-261.13"/>
<polygon fill="black" stroke="black" points="1026.67,-257.83 1016.11,-257.02 1023.85,-264.24 1026.67,-257.83"/>
<text text-anchor="middle" x="1088" y="-276.8" font-family="DejaVu Sans Mono" font-size="14.00">calls</text>
</g>
<!-- 48 -->
<g id="node39" class="node">
<title>48</title>
<polygon fill="#e552ff" stroke="#e552ff" points="1216.5,-257 1071.5,-257 1071.5,-261 1059.5,-261 1059.5,-221 1216.5,-221 1216.5,-257"/>
<polyline fill="none" stroke="#e552ff" points="1059.5,-257 1071.5,-257 "/>
<text text-anchor="middle" x="1138" y="-235.3" font-family="DejaVu Sans Mono" font-size="14.00">classificar_idade</text>
</g>
<!-- 46&#45;&gt;48 -->
<g id="edge31" class="edge">
<title>46&#45;&gt;48</title>
<path fill="none" stroke="black" stroke-dasharray="5,2" d="M1193.49,-531.07C1183.52,-478.77 1155.01,-329.25 1143.21,-267.35"/>
<polygon fill="black" stroke="black" points="1146.59,-266.35 1141.28,-257.18 1139.71,-267.66 1146.59,-266.35"/>
<text text-anchor="middle" x="1167" y="-276.8" font-family="DejaVu Sans Mono" font-size="14.00">calls</text>
</g>
<!-- 49 -->
<g id="node40" class="node">
<title>49</title>
<polygon fill="#e552ff" stroke="#e552ff" points="1391.5,-257 1246.5,-257 1246.5,-261 1234.5,-261 1234.5,-221 1391.5,-221 1391.5,-257"/>
<polyline fill="none" stroke="#e552ff" points="1234.5,-257 1246.5,-257 "/>
<text text-anchor="middle" x="1313" y="-235.3" font-family="DejaVu Sans Mono" font-size="14.00">self.assertRaises</text>
</g>
<!-- 46&#45;&gt;49 -->
<g id="edge32" class="edge">
<title>46&#45;&gt;49</title>
<path fill="none" stroke="black" stroke-dasharray="5,2" d="M1203.91,-531.07C1223.59,-478.55 1280.01,-328.01 1303.04,-266.58"/>
<polygon fill="black" stroke="black" points="1306.33,-267.78 1306.56,-257.18 1299.77,-265.32 1306.33,-267.78"/>
<text text-anchor="middle" x="1319" y="-276.8" font-family="DejaVu Sans Mono" font-size="14.00">calls</text>
</g>
<!-- 50 -->
<g id="node41" class="node">
<title>50</title>
<polygon fill="#e552ff" stroke="#e552ff" points="1566.5,-257 1421.5,-257 1421.5,-261 1409.5,-261 1409.5,-221 1566.5,-221 1566.5,-257"/>
<polyline fill="none" stroke="#e552ff" points="1409.5,-257 1421.5,-257 "/>
<text text-anchor="middle" x="1488" y="-235.3" font-family="DejaVu Sans Mono" font-size="14.00">classificar_idade</text>
</g>
<!-- 46&#45;&gt;50 -->
<g id="edge33" class="edge">
<title>46&#45;&gt;50</title>
<path fill="none" stroke="black" stroke-dasharray="5,2" d="M1214.33,-531.07C1264.22,-478.01 1408.18,-324.9 1464.77,-264.71"/>
<polygon fill="black" stroke="black" points="1467.54,-266.87 1471.84,-257.18 1462.44,-262.07 1467.54,-266.87"/>
<text text-anchor="middle" x="1472" y="-276.8" font-family="DejaVu Sans Mono" font-size="14.00">calls</text>
</g>
<!-- input -->
<g id="node42" class="node">
<title>input</title>
<polygon fill="#afeeee" stroke="black" points="4537.04,-257 4449.48,-257 4426.96,-221 4514.52,-221 4537.04,-257"/>
<text text-anchor="middle" x="4482" y="-235.3" font-family="DejaVu Sans Mono" font-size="14.00">input</text>
</g>
<!-- call -->
<g id="node47" class="node">
<title>call</title>
<polygon fill="#e552ff" stroke="black" points="4509,-174 4467,-174 4467,-178 4455,-178 4455,-138 4509,-138 4509,-174"/>
<polyline fill="none" stroke="black" points="4455,-174 4467,-174 "/>
<text text-anchor="middle" x="4482" y="-152.3" font-family="DejaVu Sans Mono" font-size="14.00">call</text>
</g>
<!-- input&#45;&gt;call -->
<!-- default -->
<g id="node43" class="node">
<title>default</title>
<polygon fill="#fffb81" stroke="black" points="4383,-174 4309,-174 4309,-138 4383,-138 4383,-174"/>
<text text-anchor="middle" x="4346" y="-152.3" font-family="DejaVu Sans Mono" font-size="14.00">default</text>
</g>
<!-- if -->
<g id="node44" class="node">
<title>if</title>
<polygon fill="#ff6752" stroke="black" points="4482,-568.5 4451.83,-550.5 4482,-532.5 4512.17,-550.5 4482,-568.5"/>
<text text-anchor="middle" x="4482" y="-546.8" font-family="DejaVu Sans Mono" font-size="14.00">if</text>
</g>
<!-- if&#45;&gt;input -->
<!-- for -->
<g id="node45" class="node">
<title>for</title>
<polygon fill="#ffbe52" stroke="black" points="4432.54,-550.5 4417.27,-568.5 4386.73,-568.5 4371.46,-550.5 4386.73,-532.5 4417.27,-532.5 4432.54,-550.5"/>
<text text-anchor="middle" x="4402" y="-546.8" font-family="DejaVu Sans Mono" font-size="14.00">for</text>
</g>
<!-- return -->
<g id="node48" class="node">
<title>return</title>
<polygon fill="#98fb98" stroke="black" points="4408.79,-257 4308.91,-257 4283.21,-221 4383.09,-221 4408.79,-257"/>
<text text-anchor="middle" x="4346" y="-235.3" font-family="DejaVu Sans Mono" font-size="14.00">return</text>
</g>
<!-- for&#45;&gt;return -->
<!-- while -->
<g id="node46" class="node">
<title>while</title>
<polygon fill="#ffbe52" stroke="black" points="4353.56,-550.5 4331.78,-568.5 4288.22,-568.5 4266.44,-550.5 4288.22,-532.5 4331.78,-532.5 4353.56,-550.5"/>
<text text-anchor="middle" x="4310" y="-546.8" font-family="DejaVu Sans Mono" font-size="14.00">while</text>
</g>
<!-- return&#45;&gt;default -->
<!-- try -->
<g id="node49" class="node">
<title>try</title>
<polygon fill="orange" stroke="black" points="4211,-568.5 4173.13,-550.5 4211,-532.5 4248.87,-550.5 4211,-568.5"/>
<polyline fill="none" stroke="black" points="4183.97,-555.65 4183.97,-545.35 "/>
<polyline fill="none" stroke="black" points="4200.16,-537.65 4221.84,-537.65 "/>
<polyline fill="none" stroke="black" points="4238.03,-545.35 4238.03,-555.65 "/>
<polyline fill="none" stroke="black" points="4221.84,-563.35 4200.16,-563.35 "/>
<text text-anchor="middle" x="4211" y="-546.8" font-family="DejaVu Sans Mono" font-size="14.00">try</text>
</g>
<!-- raise -->
<g id="node50" class="node">
<title>raise</title>
<polygon fill="#98fb98" stroke="black" points="4265.69,-244.56 4219,-257 4172.31,-244.56 4172.35,-224.44 4265.65,-224.44 4265.69,-244.56"/>
<text text-anchor="middle" x="4219" y="-235.3" font-family="DejaVu Sans Mono" font-size="14.00">raise</text>
</g>
<!-- try&#45;&gt;raise -->
</g>
</svg>
