<?xml version="1.0" encoding="UTF-8" standalone="no"?>
<!DOCTYPE svg PUBLIC "-//W3C//DTD SVG 1.1//EN"
 "http://www.w3.org/Graphics/SVG/1.1/DTD/svg11.dtd">
<!-- Generated by graphviz version 2.43.0 (0)
 -->
<!-- Title: cluster0arquivo Pages: 1 -->
<svg width="1382pt" height="379pt"
 viewBox="0.00 0.00 1381.50 379.00" xmlns="http://www.w3.org/2000/svg" xmlns:xlink="http://www.w3.org/1999/xlink">
<g id="graph0" class="graph" transform="scale(1 1) rotate(0) translate(4 375)">
<title>cluster0arquivo</title>
<polygon fill="white" stroke="transparent" points="-4,4 -4,-375 1377.5,-375 1377.5,4 -4,4"/>
<text text-anchor="middle" x="686.75" y="-7.8" font-family="DejaVu Sans Mono" font-size="14.00">arquivo</text>
<g id="clust1" class="cluster">
<title>cluster_1</title>
<polygon fill="purple" stroke="purple" points="44.5,-197 44.5,-249 228.5,-249 228.5,-197 44.5,-197"/>
</g>
<g id="clust2" class="cluster">
<title>cluster0fibonacci</title>
<polygon fill="none" stroke="black" points="296.5,-31 296.5,-363 976.5,-363 976.5,-31 296.5,-31"/>
<text text-anchor="middle" x="636.5" y="-347.8" font-family="DejaVu Sans Mono" font-size="14.00">fibonacci</text>
</g>
<g id="clust3" class="cluster">
<title>cluster_5</title>
<polygon fill="purple" stroke="purple" points="416.5,-39 416.5,-91 572.5,-91 572.5,-39 416.5,-39"/>
</g>
<g id="clust4" class="cluster">
<title>cluster_KEY</title>
<polygon fill="none" stroke="black" points="984.5,-122 984.5,-363 1365.5,-363 1365.5,-122 984.5,-122"/>
<text text-anchor="middle" x="1175" y="-347.8" font-family="DejaVu Sans Mono" font-size="14.00">KEY</text>
</g>
<!-- 1 -->
<g id="node1" class="node">
<title>1</title>
<polygon fill="#fffb81" stroke="black" points="289,-348 0,-348 0,-280 289,-280 289,-348"/>
<text text-anchor="start" x="8" y="-332.8" font-family="DejaVu Sans Mono" font-size="14.00">def fibonacci(n):...</text>
<text text-anchor="start" x="8" y="-317.8" font-family="DejaVu Sans Mono" font-size="14.00">n = 10</text>
<text text-anchor="start" x="8" y="-302.8" font-family="DejaVu Sans Mono" font-size="14.00">fib_sequence = fibonacci(n)</text>
<text text-anchor="start" x="8" y="-287.8" font-family="DejaVu Sans Mono" font-size="14.00">print(f&#39;Sequência de Fibonac...&#39;)</text>
</g>
<!-- 10 -->
<g id="node2" class="node">
<title>10</title>
<polygon fill="#e552ff" stroke="#e552ff" points="144,-241 65,-241 65,-245 53,-245 53,-205 144,-205 144,-241"/>
<polyline fill="none" stroke="#e552ff" points="53,-241 65,-241 "/>
<text text-anchor="middle" x="98.5" y="-219.3" font-family="DejaVu Sans Mono" font-size="14.00">fibonacci</text>
</g>
<!-- 1&#45;&gt;10 -->
<g id="edge1" class="edge">
<title>1&#45;&gt;10</title>
<path fill="none" stroke="black" stroke-dasharray="5,2" d="M124.58,-279.59C123.17,-277.04 121.79,-274.49 120.5,-272 116.89,-265.07 113.25,-257.43 109.99,-250.32"/>
<polygon fill="black" stroke="black" points="113.13,-248.76 105.83,-241.08 106.75,-251.64 113.13,-248.76"/>
<text text-anchor="middle" x="141.5" y="-260.8" font-family="DejaVu Sans Mono" font-size="14.00">calls</text>
</g>
<!-- 11 -->
<g id="node3" class="node">
<title>11</title>
<polygon fill="#e552ff" stroke="#e552ff" points="220.5,-241 174.5,-241 174.5,-245 162.5,-245 162.5,-205 220.5,-205 220.5,-241"/>
<polyline fill="none" stroke="#e552ff" points="162.5,-241 174.5,-241 "/>
<text text-anchor="middle" x="191.5" y="-219.3" font-family="DejaVu Sans Mono" font-size="14.00">print</text>
</g>
<!-- 1&#45;&gt;11 -->
<g id="edge2" class="edge">
<title>1&#45;&gt;11</title>
<path fill="none" stroke="black" stroke-dasharray="5,2" d="M162,-279.86C167.11,-270.18 172.63,-259.72 177.5,-250.51"/>
<polygon fill="black" stroke="black" points="180.72,-251.91 182.29,-241.44 174.53,-248.65 180.72,-251.91"/>
<text text-anchor="middle" x="195.5" y="-260.8" font-family="DejaVu Sans Mono" font-size="14.00">calls</text>
</g>
<!-- 3 -->
<g id="node4" class="node">
<title>3</title>
<polygon fill="#fffb81" stroke="black" points="720,-332 563,-332 563,-296 720,-296 720,-332"/>
<text text-anchor="start" x="571" y="-310.3" font-family="DejaVu Sans Mono" font-size="14.00">sequence = [0, 1]</text>
</g>
<!-- 4 -->
<g id="node5" class="node">
<title>4</title>
<polygon fill="#ffbe52" stroke="black" points="802.71,-223 722.11,-241 560.89,-241 480.29,-223 560.89,-205 722.11,-205 802.71,-223"/>
<text text-anchor="start" x="525.37" y="-219.3" font-family="DejaVu Sans Mono" font-size="14.00">while len(sequence) &lt; n:</text>
</g>
<!-- 3&#45;&gt;4 -->
<g id="edge7" class="edge">
<title>3&#45;&gt;4</title>
<path fill="none" stroke="black" d="M641.5,-295.84C641.5,-283.28 641.5,-265.98 641.5,-251.5"/>
<polygon fill="black" stroke="black" points="645,-251.11 641.5,-241.11 638,-251.11 645,-251.11"/>
</g>
<!-- 5 -->
<g id="node6" class="node">
<title>5</title>
<polygon fill="#fffb81" stroke="black" points="684.5,-166 304.5,-166 304.5,-130 684.5,-130 684.5,-166"/>
<text text-anchor="start" x="312.5" y="-144.3" font-family="DejaVu Sans Mono" font-size="14.00">sequence.append(sequence[&#45;1] + sequence[&#45;2])</text>
</g>
<!-- 4&#45;&gt;5 -->
<g id="edge5" class="edge">
<title>4&#45;&gt;5</title>
<path fill="none" stroke="green" d="M540.41,-209.49C517.97,-204.59 498.68,-197.94 491.5,-189 488.57,-185.36 487.39,-180.88 487.23,-176.26"/>
<polygon fill="green" stroke="green" points="490.73,-176.46 488.25,-166.16 483.76,-175.75 490.73,-176.46"/>
<text text-anchor="middle" x="562" y="-177.8" font-family="DejaVu Sans Mono" font-size="14.00">len(sequence) &lt; n</text>
</g>
<!-- 6 -->
<g id="node8" class="node">
<title>6</title>
<polygon fill="#98fb98" stroke="black" points="968.82,-166 756.74,-166 702.18,-130 914.26,-130 968.82,-166"/>
<text text-anchor="start" x="744.51" y="-144.3" font-family="DejaVu Sans Mono" font-size="14.00">return sequence</text>
</g>
<!-- 4&#45;&gt;6 -->
<g id="edge6" class="edge">
<title>4&#45;&gt;6</title>
<path fill="none" stroke="red" d="M686.98,-204.88C715.08,-194.31 751.29,-180.69 780.93,-169.53"/>
<polygon fill="red" stroke="red" points="782.17,-172.81 790.3,-166.01 779.71,-166.25 782.17,-172.81"/>
<text text-anchor="middle" x="849.5" y="-177.8" font-family="DejaVu Sans Mono" font-size="14.00">(len(sequence) &gt;= n)</text>
</g>
<!-- 5&#45;&gt;4 -->
<g id="edge4" class="edge">
<title>5&#45;&gt;4</title>
<path fill="none" stroke="black" d="M623.87,-166.09C629.37,-168.4 633.73,-171.02 636.5,-174 641.68,-179.56 643.82,-187.21 644.42,-194.77"/>
<polygon fill="black" stroke="black" points="640.92,-194.82 644.42,-204.82 647.92,-194.82 640.92,-194.82"/>
</g>
<!-- 7 -->
<g id="node7" class="node">
<title>7</title>
<polygon fill="#e552ff" stroke="#e552ff" points="564.5,-83 436.5,-83 436.5,-87 424.5,-87 424.5,-47 564.5,-47 564.5,-83"/>
<polyline fill="none" stroke="#e552ff" points="424.5,-83 436.5,-83 "/>
<text text-anchor="middle" x="494.5" y="-61.3" font-family="DejaVu Sans Mono" font-size="14.00">sequence.append</text>
</g>
<!-- 5&#45;&gt;7 -->
<g id="edge3" class="edge">
<title>5&#45;&gt;7</title>
<path fill="none" stroke="black" stroke-dasharray="5,2" d="M494.5,-129.82C494.5,-119.19 494.5,-105.31 494.5,-93.2"/>
<polygon fill="black" stroke="black" points="498,-93.15 494.5,-83.15 491,-93.15 498,-93.15"/>
<text text-anchor="middle" x="515.5" y="-102.8" font-family="DejaVu Sans Mono" font-size="14.00">calls</text>
</g>
<!-- input -->
<g id="node9" class="node">
<title>input</title>
<polygon fill="#afeeee" stroke="black" points="1357.54,-241 1269.98,-241 1247.46,-205 1335.02,-205 1357.54,-241"/>
<text text-anchor="middle" x="1302.5" y="-219.3" font-family="DejaVu Sans Mono" font-size="14.00">input</text>
</g>
<!-- call -->
<g id="node14" class="node">
<title>call</title>
<polygon fill="#e552ff" stroke="black" points="1329.5,-166 1287.5,-166 1287.5,-170 1275.5,-170 1275.5,-130 1329.5,-130 1329.5,-166"/>
<polyline fill="none" stroke="black" points="1275.5,-166 1287.5,-166 "/>
<text text-anchor="middle" x="1302.5" y="-144.3" font-family="DejaVu Sans Mono" font-size="14.00">call</text>
</g>
<!-- input&#45;&gt;call -->
<!-- default -->
<g id="node10" class="node">
<title>default</title>
<polygon fill="#fffb81" stroke="black" points="1203.5,-166 1129.5,-166 1129.5,-130 1203.5,-130 1203.5,-166"/>
<text text-anchor="middle" x="1166.5" y="-144.3" font-family="DejaVu Sans Mono" font-size="14.00">default</text>
</g>
<!-- if -->
<g id="node11" class="node">
<title>if</title>
<polygon fill="#ff6752" stroke="black" points="1302.5,-332 1272.33,-314 1302.5,-296 1332.67,-314 1302.5,-332"/>
<text text-anchor="middle" x="1302.5" y="-310.3" font-family="DejaVu Sans Mono" font-size="14.00">if</text>
</g>
<!-- if&#45;&gt;input -->
<!-- for -->
<g id="node12" class="node">
<title>for</title>
<polygon fill="#ffbe52" stroke="black" points="1253.04,-314 1237.77,-332 1207.23,-332 1191.96,-314 1207.23,-296 1237.77,-296 1253.04,-314"/>
<text text-anchor="middle" x="1222.5" y="-310.3" font-family="DejaVu Sans Mono" font-size="14.00">for</text>
</g>
<!-- return -->
<g id="node15" class="node">
<title>return</title>
<polygon fill="#98fb98" stroke="black" points="1229.29,-241 1129.41,-241 1103.71,-205 1203.59,-205 1229.29,-241"/>
<text text-anchor="middle" x="1166.5" y="-219.3" font-family="DejaVu Sans Mono" font-size="14.00">return</text>
</g>
<!-- for&#45;&gt;return -->
<!-- while -->
<g id="node13" class="node">
<title>while</title>
<polygon fill="#ffbe52" stroke="black" points="1174.06,-314 1152.28,-332 1108.72,-332 1086.94,-314 1108.72,-296 1152.28,-296 1174.06,-314"/>
<text text-anchor="middle" x="1130.5" y="-310.3" font-family="DejaVu Sans Mono" font-size="14.00">while</text>
</g>
<!-- return&#45;&gt;default -->
<!-- try -->
<g id="node16" class="node">
<title>try</title>
<polygon fill="orange" stroke="black" points="1031.5,-332 993.63,-314 1031.5,-296 1069.37,-314 1031.5,-332"/>
<polyline fill="none" stroke="black" points="1004.47,-319.15 1004.47,-308.85 "/>
<polyline fill="none" stroke="black" points="1020.66,-301.15 1042.34,-301.15 "/>
<polyline fill="none" stroke="black" points="1058.53,-308.85 1058.53,-319.15 "/>
<polyline fill="none" stroke="black" points="1042.34,-326.85 1020.66,-326.85 "/>
<text text-anchor="middle" x="1031.5" y="-310.3" font-family="DejaVu Sans Mono" font-size="14.00">try</text>
</g>
<!-- raise -->
<g id="node17" class="node">
<title>raise</title>
<polygon fill="#98fb98" stroke="black" points="1086.19,-228.56 1039.5,-241 992.81,-228.56 992.85,-208.44 1086.15,-208.44 1086.19,-228.56"/>
<text text-anchor="middle" x="1039.5" y="-219.3" font-family="DejaVu Sans Mono" font-size="14.00">raise</text>
</g>
<!-- try&#45;&gt;raise -->
</g>
</svg>
